<svg xmlns="http://www.w3.org/2000/svg" xmlns:xlink="http://www.w3.org/1999/xlink" width="960" height="537.62"><rect width="960" height="537.62" rx="5" ry="5" class="a"/><svg y="0%" x="0%"><circle cx="20" cy="20" r="6" fill="#ff5f58"/><circle cx="40" cy="20" r="6" fill="#ffbd2e"/><circle cx="60" cy="20" r="6" fill="#18c132"/></svg><svg height="477.62" viewBox="0 0 92 47.762" width="920" x="15" xmlns="http://www.w3.org/2000/svg" xmlns:xlink="http://www.w3.org/1999/xlink" y="50"><style>@keyframes j{0%{transform:translateX(-92px)}9.6%{transform:translateX(-276px)}23.8%{transform:translateX(-368px)}41.4%{transform:translateX(-552px)}55.5%{transform:translateX(-644px)}65.9%{transform:translateX(-736px)}66%{transform:translateX(-828px)}80.2%{transform:translateX(-920px)}96%{transform:translateX(-1012px)}to{transform:translateX(-1104px)}}.a{fill:#282d35}.f,.g{white-space:pre}.f{fill:#a8cc8c;font-weight:700}.g{fill:#b9c0cb}</style><g font-family="Monaco,Consolas,Menlo,'Bitstream Vera Sans Mono','Powerline Symbols',monospace" font-size="1.67"><defs><symbol id="1"><text y="1.67" class="f">$</text><text x="2.004" y="1.67" class="g">file</text><text x="7.014" y="1.67" class="g">greet</text></symbol><symbol id="2"><text y="1.67" class="g">greet:</text><text x="7.014" y="1.67" class="g">ELF</text><text x="11.022" y="1.67" class="g">64-bit</text><text x="18.036" y="1.67" class="g">LSB</text><text x="22.044" y="1.67" class="g">pie</text><text x="26.052" y="1.67" class="g">executable,</text><text x="38.076" y="1.67" class="g">x86-64,</text><text x="46.092" y="1.67" class="g">version</text><text x="54.108" y="1.67" class="g">1</text><text x="56.112" y="1.67" class="g">(SYSV),</text><text x="64.128" y="1.67" class="g">dynamically</text><text x="76.152" y="1.67" class="g">linked,</text><text x="84.168" y="1.67" class="g">interpre</text></symbol><symbol id="3"><text y="1.67" class="g">ter</text><text x="4.008" y="1.67" class="g">/lib64/ld-linux-x86-64.so.2,</text><text x="33.066" y="1.67" class="g">BuildID[sha1]=8e9401a51969683b238716a412aef507398554f4,</text><text x="89.178" y="1.67" class="g">for</text></symbol><symbol id="4"><text x="1.002" y="1.67" class="g">GNU/Linux</text><text x="11.022" y="1.67" class="g">3.2.0,</text><text x="18.036" y="1.67" class="g">not</text><text x="22.044" y="1.67" class="g">stripped</text></symbol><symbol id="5"><text y="1.67" class="f">$</text><text x="2.004" y="1.67" class="g">scratchsmith</text><text x="15.03" y="1.67" class="g">pack</text><text x="20.04" y="1.67" class="g">--sbom</text><text x="27.054" y="1.67" class="g">--strip</text><text x="35.07" y="1.67" class="g">--smoke</text><text x="43.086" y="1.67" class="g">./greet</text></symbol><symbol id="6"><text y="1.67" class="g">payload</text><text x="8.016" y="1.67" class="g">size:</text></symbol><symbol id="7"><text x="7.014" y="1.67" class="g">16064</text><text x="13.026" y="1.67" class="g">-&gt;</text><text x="21.042" y="1.67" class="g">14488</text><text x="28.056" y="1.67" class="g">/tmp/tmp.GAq2Ff89y8/greet</text></symbol><symbol id="8"><text x="6.012" y="1.67" class="g">225672</text><text x="13.026" y="1.67" class="g">-&gt;</text><text x="20.04" y="1.67" class="g">225672</text><text x="28.056" y="1.67" class="g">/lib64/ld-linux-x86-64.so.2</text></symbol><symbol id="9"><text x="5.01" y="1.67" class="g">1995216</text><text x="13.026" y="1.67" class="g">-&gt;</text><text x="19.038" y="1.67" class="g">1995216</text><text x="28.056" y="1.67" class="g">/usr/lib/x86_64-linux-gnu/libc.so.6</text></symbol><symbol id="10"><text x="6.012" y="1.67" class="g">225672</text><text x="13.026" y="1.67" class="g">-&gt;</text><text x="20.04" y="1.67" class="g">225672</text><text x="28.056" y="1.67" class="g">/usr/lib/x86_64-linux-gnu/ld-linux-x86-64.so.2</text></symbol><symbol id="11"><text x="2.004" y="1.67" class="g">total</text><text x="8.016" y="1.67" class="g">2462624</text><text x="16.032" y="1.67" class="g">-&gt;</text><text x="19.038" y="1.67" class="g">2461048</text><text x="27.054" y="1.67" class="g">bytes</text><text x="33.066" y="1.67" class="g">(saved</text><text x="40.08" y="1.67" class="g">1576)</text></symbol><symbol id="12"><text y="1.67" class="g">loaded</text><text x="7.014" y="1.67" class="g">image</text><text x="13.026" y="1.67" class="g">scratchsmith/greet:packed</text></symbol><symbol id="13"><text y="1.67" class="g">sbom:</text><text x="6.012" y="1.67" class="g">sbom.json</text></symbol><symbol id="14"><text y="1.67" class="g">smoke-run</text><text x="10.02" y="1.67" class="g">ok:</text><text x="14.028" y="1.67" class="g">the</text><text x="18.036" y="1.67" class="g">binary</text><text x="25.05" y="1.67" class="g">starts</text><text x="32.064" y="1.67" class="g">inside</text><text x="39.078" y="1.67" class="g">the</text><text x="43.086" y="1.67" class="g">image</text></symbol><symbol id="15"><text y="1.67" class="f">$</text><text x="2.004" y="1.67" class="g">docker</text><text x="9.018" y="1.67" class="g">image</text><text x="15.03" y="1.67" class="g">ls</text><text x="18.036" y="1.67" class="g">scratchsmith/greet:packed</text><text x="44.088" y="1.67" class="g">--format</text><text x="53.106" y="1.67" class="g">&apos;table</text><text x="60.12" y="1.67" class="g">{{.Repository}}:{{.Tag}}\t{{.Siz</text></symbol><symbol id="16"><text y="1.67" class="g">e}}&apos;</text></symbol><symbol id="17"><text y="1.67" class="g">REPOSITORY:TAG</text><text x="28.056" y="1.67" class="g">SIZE</text></symbol><symbol id="18"><text y="1.67" class="g">scratchsmith/greet:packed</text><text x="28.056" y="1.67" class="g">2.55MB</text></symbol><symbol id="19"><text y="1.67" class="f">$</text><text x="2.004" y="1.67" class="g">docker</text><text x="9.018" y="1.67" class="g">run</text><text x="13.026" y="1.67" class="g">--rm</text><text x="18.036" y="1.67" class="g">scratchsmith/greet:packed</text></symbol><symbol id="20"><text y="1.67" class="g">hello</text><text x="6.012" y="1.67" class="g">from</text><text x="11.022" y="1.67" class="g">a</text><text x="13.026" y="1.67" class="g">FROM</text><text x="18.036" y="1.67" class="g">scratch</text><text x="26.052" y="1.67" class="g">image</text><text x="32.064" y="1.67" class="g">🔨</text></symbol><symbol id="21"><text y="1.67" class="g">glibc</text><text x="6.012" y="1.67" class="g">NSS</text><text x="10.02" y="1.67" class="g">resolved</text><text x="19.038" y="1.67" class="g">localhost</text><text x="29.058" y="1.67" class="g">inside</text><text x="36.072" y="1.67" class="g">scratch</text></symbol><symbol id="a"><path fill="transparent" d="M0 0h92v23H0z"/></symbol><symbol id="b"><path fill="#6f7683" d="M0 0h1.102v2.171H0z"/></symbol></defs><path class="a" d="M0 0h92v47.762H0z"/><g style="animation-duration:8.523794s;animation-iteration-count:infinite;animation-name:j;animation-timing-function:steps(1,end)"><svg width="1196"><svg><use xlink:href="#a"/><use xlink:href="#b" x="-.004"/></svg><svg x="92"><use xlink:href="#a"/><use xlink:href="#b" x="-.004" y="2.146"/><use xlink:href="#1"/></svg><svg x="184"><use xlink:href="#a"/><use xlink:href="#b" x="-.004" y="8.659"/><use xlink:href="#1"/><use xlink:href="#2" y="2.171"/><use xlink:href="#3" y="4.342"/><use xlink:href="#4" y="6.513"/></svg><svg x="276"><use xlink:href="#a"/><use xlink:href="#b" x="-.004" y="10.83"/><use xlink:href="#1"/><use xlink:href="#2" y="2.171"/><use xlink:href="#3" y="4.342"/><use xlink:href="#4" y="6.513"/></svg><svg x="368"><use xlink:href="#a"/><use xlink:href="#b" x="-.004" y="13.001"/><use xlink:href="#1"/><use xlink:href="#2" y="2.171"/><use xlink:href="#3" y="4.342"/><use xlink:href="#4" y="6.513"/><use xlink:href="#5" y="10.855"/></svg><svg x="460"><use xlink:href="#a"/><use xlink:href="#b" x="-.004" y="32.54"/><use xlink:href="#1"/><use xlink:href="#2" y="2.171"/><use xlink:href="#3" y="4.342"/><use xlink:href="#4" y="6.513"/><use xlink:href="#5" y="10.855"/><use xlink:href="#6" y="13.026"/><use xlink:href="#7" y="15.197"/><use xlink:href="#8" y="17.368"/><use xlink:href="#9" y="19.539"/><use xlink:href="#10" y="21.71"/><use xlink:href="#11" y="23.881"/><use xlink:href="#12" y="26.052"/><use xlink:href="#13" y="28.223"/><use xlink:href="#14" y="30.394"/></svg><svg x="552"><use xlink:href="#a"/><use xlink:href="#b" x="-.004" y="34.711"/><use xlink:href="#1"/><use xlink:href="#2" y="2.171"/><use xlink:href="#3" y="4.342"/><use xlink:href="#4" y="6.513"/><use xlink:href="#5" y="10.855"/><use xlink:href="#6" y="13.026"/><use xlink:href="#7" y="15.197"/><use xlink:href="#8" y="17.368"/><use xlink:href="#9" y="19.539"/><use xlink:href="#10" y="21.71"/><use xlink:href="#11" y="23.881"/><use xlink:href="#12" y="26.052"/><use xlink:href="#13" y="28.223"/><use xlink:href="#14" y="30.394"/></svg><svg x="644"><use xlink:href="#a"/><use xlink:href="#b" x="-.004" y="39.053"/><use xlink:href="#1"/><use xlink:href="#2" y="2.171"/><use xlink:href="#3" y="4.342"/><use xlink:href="#4" y="6.513"/><use xlink:href="#5" y="10.855"/><use xlink:href="#6" y="13.026"/><use xlink:href="#7" y="15.197"/><use xlink:href="#8" y="17.368"/><use xlink:href="#9" y="19.539"/><use xlink:href="#10" y="21.71"/><use xlink:href="#11" y="23.881"/><use xlink:href="#12" y="26.052"/><use xlink:href="#13" y="28.223"/><use xlink:href="#14" y="30.394"/><use xlink:href="#15" y="34.736"/><use xlink:href="#16" y="36.907"/></svg><svg x="736"><use xlink:href="#a"/><use xlink:href="#b" x="-.004" y="43.395"/><use xlink:href="#1"/><use xlink:href="#2" y="2.171"/><use xlink:href="#3" y="4.342"/><use xlink:href="#4" y="6.513"/><use xlink:href="#5" y="10.855"/><use xlink:href="#6" y="13.026"/><use xlink:href="#7" y="15.197"/><use xlink:href="#8" y="17.368"/><use xlink:href="#9" y="19.539"/><use xlink:href="#10" y="21.71"/><use xlink:href="#11" y="23.881"/><use xlink:href="#12" y="26.052"/><use xlink:href="#13" y="28.223"/><use xlink:href="#14" y="30.394"/><use xlink:href="#15" y="34.736"/><use xlink:href="#16" y="36.907"/><use xlink:href="#17" y="39.078"/><use xlink:href="#18" y="41.249"/></svg><svg x="828"><use xlink:href="#a"/><use xlink:href="#b" x="-.004" y="45.566"/><use xlink:href="#1"/><use xlink:href="#2" y="2.171"/><use xlink:href="#3" y="4.342"/><use xlink:href="#4" y="6.513"/><use xlink:href="#5" y="10.855"/><use xlink:href="#6" y="13.026"/><use xlink:href="#7" y="15.197"/><use xlink:href="#8" y="17.368"/><use xlink:href="#9" y="19.539"/><use xlink:href="#10" y="21.71"/><use xlink:href="#11" y="23.881"/><use xlink:href="#12" y="26.052"/><use xlink:href="#13" y="28.223"/><use xlink:href="#14" y="30.394"/><use xlink:href="#15" y="34.736"/><use xlink:href="#16" y="36.907"/><use xlink:href="#17" y="39.078"/><use xlink:href="#18" y="41.249"/></svg><svg x="920"><use xlink:href="#a"/><use xlink:href="#b" x="-.004" y="47.737"/><use xlink:href="#1"/><use xlink:href="#2" y="2.171"/><use xlink:href="#3" y="4.342"/><use xlink:href="#4" y="6.513"/><use xlink:href="#5" y="10.855"/><use xlink:href="#6" y="13.026"/><use xlink:href="#7" y="15.197"/><use xlink:href="#8" y="17.368"/><use xlink:href="#9" y="19.539"/><use xlink:href="#10" y="21.71"/><use xlink:href="#11" y="23.881"/><use xlink:href="#12" y="26.052"/><use xlink:href="#13" y="28.223"/><use xlink:href="#14" y="30.394"/><use xlink:href="#15" y="34.736"/><use xlink:href="#16" y="36.907"/><use xlink:href="#17" y="39.078"/><use xlink:href="#18" y="41.249"/><use xlink:href="#19" y="45.591"/></svg><svg x="1012"><use xlink:href="#a"/><use xlink:href="#b" x="-.004" y="47.737"/><use xlink:href="#3"/><use xlink:href="#4" y="2.171"/><use xlink:href="#5" y="6.513"/><use xlink:href="#6" y="8.684"/><use xlink:href="#7" y="10.855"/><use xlink:href="#8" y="13.026"/><use xlink:href="#9" y="15.197"/><use xlink:href="#10" y="17.368"/><use xlink:href="#11" y="19.539"/><use xlink:href="#12" y="21.71"/><use xlink:href="#13" y="23.881"/><use xlink:href="#14" y="26.052"/><use xlink:href="#15" y="30.394"/><use xlink:href="#16" y="32.565"/><use xlink:href="#17" y="34.736"/><use xlink:href="#18" y="36.907"/><use xlink:href="#19" y="41.249"/><use xlink:href="#20" y="43.42"/><use xlink:href="#21" y="45.591"/></svg><svg x="1104"><use xlink:href="#a"/><use xlink:href="#b" x="-.004" y="47.737"/><use xlink:href="#4"/><use xlink:href="#5" y="4.342"/><use xlink:href="#6" y="6.513"/><use xlink:href="#7" y="8.684"/><use xlink:href="#8" y="10.855"/><use xlink:href="#9" y="13.026"/><use xlink:href="#10" y="15.197"/><use xlink:href="#11" y="17.368"/><use xlink:href="#12" y="19.539"/><use xlink:href="#13" y="21.71"/><use xlink:href="#14" y="23.881"/><use xlink:href="#15" y="28.223"/><use xlink:href="#16" y="30.394"/><use xlink:href="#17" y="32.565"/><use xlink:href="#18" y="34.736"/><use xlink:href="#19" y="39.078"/><use xlink:href="#20" y="41.249"/><use xlink:href="#21" y="43.42"/></svg></svg></g></g></svg></svg>